<?xml version="1.0" encoding="UTF-8" standalone="no"?>
<!-- Created with Inkscape (http://www.inkscape.org/) -->

<svg
   xmlns:dc="http://purl.org/dc/elements/1.1/"
   xmlns:cc="http://creativecommons.org/ns#"
   xmlns:rdf="http://www.w3.org/1999/02/22-rdf-syntax-ns#"
   xmlns:svg="http://www.w3.org/2000/svg"
   xmlns="http://www.w3.org/2000/svg"
   xmlns:sodipodi="http://sodipodi.sourceforge.net/DTD/sodipodi-0.dtd"
   xmlns:inkscape="http://www.inkscape.org/namespaces/inkscape"
   width="1920"
   height="1080"
   id="svg2"
   version="1.1"
   inkscape:version="0.48.4 r9939"
   sodipodi:docname="New document 1">
  <title
     id="title3070">intro</title>
  <defs
     id="defs4" />
  <sodipodi:namedview
     id="base"
     pagecolor="#ffffff"
     bordercolor="#666666"
     borderopacity="1.0"
     inkscape:pageopacity="0.0"
     inkscape:pageshadow="2"
     inkscape:zoom="0.62"
     inkscape:cx="375"
     inkscape:cy="684.02558"
     inkscape:document-units="px"
     inkscape:current-layer="layer3"
     showgrid="false"
     width="1920px"
     inkscape:window-width="1600"
     inkscape:window-height="838"
     inkscape:window-x="-8"
     inkscape:window-y="-8"
     inkscape:window-maximized="1" />
  <metadata
     id="metadata7">
    <rdf:RDF>
      <cc:Work
         rdf:about="">
        <dc:format>image/svg+xml</dc:format>
        <dc:type
           rdf:resource="http://purl.org/dc/dcmitype/StillImage" />
        <dc:title>intro</dc:title>
      </cc:Work>
    </rdf:RDF>
  </metadata>
  <g
     inkscape:label="Layer 1"
     inkscape:groupmode="layer"
     id="layer1"
     transform="translate(0,27.637818)">
    <text
       xml:space="preserve"
       style="font-size:40px;font-style:normal;font-weight:normal;line-height:125%;letter-spacing:0px;word-spacing:0px;fill:#000000;fill-opacity:1;stroke:none;font-family:Stereofidelic;-inkscape-font-specification:Stereofidelic;font-stretch:normal;font-variant:normal"
       x="131.42857"
       y="141.23734"
       id="text2985"
       sodipodi:linespacing="125%"
       transform="translate(0,308.2677)"><tspan
         sodipodi:role="line"
         id="tspan2987"
         x="131.42857"
         y="141.23734" /></text>
    <text
       xml:space="preserve"
       style="font-size:72px;font-style:normal;font-weight:normal;line-height:125%;letter-spacing:0px;word-spacing:0px;fill:#000000;fill-opacity:1;stroke:none;font-family:Sans"
       x="202.85715"
       y="294.28571"
       id="text2989"
       sodipodi:linespacing="125%"
       transform="translate(0,-27.637818)"><tspan
         sodipodi:role="line"
         id="tspan2991"
         x="202.85715"
         y="294.28571" /></text>
    <text
       xml:space="preserve"
       style="font-size:144px;font-style:normal;font-variant:normal;font-weight:normal;font-stretch:normal;line-height:125%;letter-spacing:0px;word-spacing:0px;fill:#000000;fill-opacity:1;stroke:none;font-family:Stereofidelic;-inkscape-font-specification:Stereofidelic"
       x="154.28571"
       y="174.28571"
       id="text2993"
       sodipodi:linespacing="125%"
       transform="translate(0,-27.637818)"><tspan
         sodipodi:role="line"
         id="tspan2995"
         x="154.28571"
         y="174.28571">GO NUTS!</tspan></text>
  </g>
  <g
     inkscape:groupmode="layer"
     id="layer2"
     inkscape:label="acorns">
    <path
       style="fill:none;stroke:#000000;stroke-width:1px;stroke-linecap:butt;stroke-linejoin:miter;stroke-opacity:1"
       d="m 475.80645,500.96774 c 0,0 -8.06451,-341.93548 356.45161,-229.03226 364.51614,112.90323 -311.29032,359.67742 -311.29032,359.67742 0,0 -69.35484,29.03226 -45.16129,-130.64516 z"
       id="path3011"
       inkscape:connector-curvature="0" />
    <path
       style="fill:none;stroke:#000000;stroke-width:1px;stroke-linecap:butt;stroke-linejoin:miter;stroke-opacity:1"
       d="m 545.16129,621.93548 c 0,0 87.09677,264.51613 441.93548,206.45162 354.83873,-58.06452 -70.96774,-419.35484 -70.96774,-419.35484 0,0 -50,91.93548 -370.96774,212.90322 z"
       id="path3013"
       inkscape:connector-curvature="0" />
    <path
       style="fill:none;stroke:#000000;stroke-width:1px;stroke-linecap:butt;stroke-linejoin:miter;stroke-opacity:1"
       d="m 574.19355,284.83871 c 0,0 -95.16129,303.22581 -30.64516,337.09677 64.51613,33.87097 30.64516,-337.09677 30.64516,-337.09677 z"
       id="path3015"
       inkscape:connector-curvature="0" />
    <path
       style="fill:none;stroke:#000000;stroke-width:1px;stroke-linecap:butt;stroke-linejoin:miter;stroke-opacity:1"
       d="m 572.58065,286.45161 c 0,0 37.09677,274.19355 148.38709,256.45162 C 832.25806,525.16129 572.58065,286.45161 572.58065,286.45161 z"
       id="path3017"
       inkscape:connector-curvature="0" />
    <path
       style="fill:none;stroke:#000000;stroke-width:1px;stroke-linecap:butt;stroke-linejoin:miter;stroke-opacity:1"
       d="m 570.96774,283.22581 c 0,0 177.41936,200 317.74194,146.77419 C 1029.0323,376.77419 643.54839,257.41935 570.96774,283.22581 z"
       id="path3019"
       inkscape:connector-curvature="0" />
    <path
       style="fill:none;stroke:#000000;stroke-width:1px;stroke-linecap:butt;stroke-linejoin:miter;stroke-opacity:1"
       d="M 574.19355,283.22581 645.16129,99.354839 c 0,0 -17.74194,-29.032258 -37.09677,-1.612904 -19.35484,27.419355 -33.87097,185.483875 -33.87097,185.483875 z"
       id="path3021"
       inkscape:connector-curvature="0" />
    <path
       style="fill:none;stroke:#000000;stroke-width:1px;stroke-linecap:butt;stroke-linejoin:miter;stroke-opacity:1"
       d="M 570.96774,281.6129 375.80645,183.22581 c 0,0 -211.29032,20.96774 -8.06451,59.67742 z"
       id="path3023"
       inkscape:connector-curvature="0" />
    <path
       style="fill:none;stroke:#000000;stroke-width:1px;stroke-linecap:butt;stroke-linejoin:miter;stroke-opacity:1"
       d="M 569.35484,281.6129 491.93548,180 c 0,0 -4.83871,-45.16129 46.7742,-11.29032 51.6129,33.87097 30.64516,112.90322 30.64516,112.90322 z"
       id="path3025"
       inkscape:connector-curvature="0" />
  </g>
  <g
     inkscape:groupmode="layer"
     id="layer3"
     inkscape:label="colors">
    <path
       style="fill:#aa4400"
       d="m 748.3871,514.44216 c 0,-11.61018 -0.75163,-15.89638 -4.23845,-24.16991 -13.0445,-30.95202 -48.92544,-80.1006 -90.51962,-123.99091 -5.9879,-6.31846 -10.88709,-11.97467 -10.88709,-12.56935 0,-0.59469 7.07661,4.25751 15.7258,10.78266 48.30729,36.44415 92.71368,59.36186 136.69355,70.54624 16.95037,4.31059 49.72026,5.94267 66.13918,3.29401 6.77771,-1.09336 17.47308,-3.73954 23.76748,-5.88041 6.2944,-2.14086 11.70924,-3.62761 12.03299,-3.30388 1.99083,1.99085 -37.75249,33.13099 -65.69613,51.47498 -17.23373,11.31331 -79.92493,47.92947 -82.06094,47.92947 -0.52623,0 -0.95677,-6.35081 -0.95677,-14.1129 z"
       id="path3028"
       inkscape:connector-curvature="0" />
    <path
       style="fill:#aa4400"
       d="m 571.98678,602.11127 c 12.40593,-36.74766 15.09698,-113.97994 8.6606,-248.55621 l -0.84854,-17.74193 5.54075,22.58064 c 22.30743,90.91106 54.03697,153.31836 89.2544,175.55015 9.42441,5.94937 24.71301,10.72687 34.62932,10.82125 l 8.51863,0.0811 -20.16129,9.7314 c -34.87187,16.83187 -124.70572,56.23549 -128.20777,56.23549 -0.17811,0 0.99815,-3.91584 2.6139,-8.70186 z"
       id="path3030"
       inkscape:connector-curvature="0" />
    <path
       style="fill:#aa4400"
       d="m 496.77779,629.2399 c -7.20513,-3.75685 -10.43392,-7.14977 -14.57525,-15.31613 -8.67584,-17.10798 -12.12003,-46.81758 -8.96176,-77.30419 0.96494,-9.31452 2.49937,-27.09678 3.40985,-39.51613 3.38178,-46.12913 10.325,-80.52209 22.65249,-112.20815 13.34203,-34.29377 29.86789,-59.25723 54.6482,-82.54992 14.33448,-13.47394 19.20225,-16.80812 17.29933,-11.84917 -1.89907,4.94889 -15.71435,54.51993 -20.27135,72.73627 -22.14236,88.51279 -32.03354,153.25448 -30.3094,198.3871 1.17079,30.64776 5.81998,47.59029 15.44879,56.29837 1.86859,1.6899 3.39744,3.58864 3.39744,4.21943 0,2.25671 -23.52735,9.65868 -30.64516,9.64133 -3.99194,-0.01 -9.43387,-1.15221 -12.09318,-2.53881 l 0,0 z"
       id="path3032"
       inkscape:connector-curvature="0" />
    <path
       style="fill:#aa4400"
       d="m 920.16129,401.39968 c 0,-10.95082 -10.59247,-23.83354 -30.22944,-36.76549 C 828.61537,324.25413 692.61992,282.83944 608.87097,279.04271 L 585.48387,277.98247 600,271.11364 c 17.67409,-8.36314 38.19236,-14.48155 59.67742,-17.79543 22.35851,-3.4486 73.16392,-2.14287 99.94814,2.56872 56.56428,9.95019 117.24262,30.93478 145.69623,50.38661 24.12865,16.49514 36.7661,40.02732 32.50881,60.53458 -2.11921,10.20816 -6.47171,20.52816 -12.9982,30.81937 -3.70161,5.83683 -4.67111,6.61976 -4.67111,3.77219 z"
       id="path3034"
       inkscape:connector-curvature="0" />
    <path
       style="fill:#552200"
       d="m 749.17609,515.24861 c -0.01,-6.43145 -1.02777,-15.02208 -2.26259,-19.09028 -7.20626,-23.74153 -39.42359,-70.81643 -78.69808,-114.99106 -8.66171,-9.74241 -15.46368,-17.99836 -15.11547,-18.34656 0.3482,-0.3482 7.77703,4.56416 16.5085,10.91636 45.77592,33.30223 99.07444,58.18758 136.84316,63.89276 24.13595,3.64587 50.95233,2.92403 69.39581,-1.86799 8.64418,-2.24594 15.99939,-3.80084 16.3449,-3.45531 1.2075,1.20749 -22.81001,20.42903 -47.05282,37.657 -17.42731,12.38458 -92.03233,56.97863 -95.3242,56.97863 -0.34196,0 -0.62961,-5.2621 -0.63921,-11.69355 z"
       id="path3046"
       inkscape:connector-curvature="0" />
    <path
       style="fill:#552200"
       d="m 920.16129,397.34545 c 0,-4.65259 -6.85456,-14.30615 -16.00789,-22.54458 C 860.97113,335.93474 718.19518,287.48021 625,280.06329 c -11.97581,-0.95309 -24.67742,-2.23607 -28.22581,-2.85108 l -6.45161,-1.11819 16.4312,-6.8344 c 28.50535,-11.85654 44.86543,-15.08635 81.37724,-16.0655 19.36268,-0.51925 39.11587,-0.10085 50.80646,1.07616 48.79326,4.9125 120.06344,26.36601 156.58397,47.13439 22.84947,12.99396 39.65145,34.17414 41.85245,52.75825 1.14773,9.69068 -2.58567,23.24497 -10.16156,36.89214 -3.07781,5.54436 -5.9234,10.08065 -6.32353,10.08065 -0.40013,0 -0.72752,-1.70562 -0.72752,-3.79026 z"
       id="path3048"
       inkscape:connector-curvature="0" />
    <path
       style="fill:#552200"
       d="m 572.28064,605.48114 c 4.39556,-18.34243 7.68736,-36.68072 9.41164,-52.43124 2.29317,-20.94706 2.85157,-107.42284 1.07989,-167.23677 -1.02451,-34.58884 -0.93674,-36.49705 1.29838,-28.22581 23.31425,86.2763 44.41431,132.81611 74.0043,163.22914 12.20316,12.5426 28.92333,21.74702 42.37548,23.32763 4.68317,0.55028 8.84779,1.53918 9.2547,2.19758 0.97236,1.57333 -104.09539,49.71908 -129.63391,59.40286 l -8.63855,3.27558 0.84807,-3.53897 0,0 z"
       id="path3050"
       inkscape:connector-curvature="0" />
    <path
       style="fill:#552200"
       d="m 494.98155,627.09575 c -13.55573,-8.26604 -21.59445,-33.47467 -21.59445,-67.71808 0,-19.25967 5.13209,-78.94733 9.02955,-105.01616 9.54437,-63.83912 35.11498,-116.88685 73.24966,-151.96069 7.44182,-6.84451 13.77811,-12.19703 14.08066,-11.89449 0.30254,0.30254 -3.53337,14.97518 -8.52424,32.60586 -15.89542,56.15189 -29.96265,120.09123 -37.11456,168.69563 -3.5974,24.44793 -4.82474,70.0341 -2.40347,89.27027 2.29614,18.24207 5.00818,26.412 11.57921,34.88199 5.15444,6.64401 5.16172,6.63356 -7.69961,11.05851 -11.79368,4.05762 -24.02449,4.08846 -30.60275,0.0771 l 0,6e-5 z"
       id="path3052"
       inkscape:connector-curvature="0" />
    <path
       style="fill:#aa4400"
       d="m 701.10425,541.14437 c -50.4703,-7.66952 -94.65157,-88.23628 -121.2255,-221.06079 -6.46,-32.28898 -7.71188,-32.61664 33.31097,8.71884 19.6737,19.82363 42.79511,44.00004 51.38092,53.72535 64.51055,73.07237 92.43249,124.53045 79.35065,146.23747 -2.79602,4.6395 -18.35245,12.11381 -26.98581,12.96571 -3.99193,0.3939 -11.11598,0.13 -15.83123,-0.58658 z"
       id="path3054"
       inkscape:connector-curvature="0" />
    <path
       style="fill:#aa4400"
       d="m 825,437.1754 c -48.97263,-4.37484 -111.37414,-33.37873 -170.16129,-79.09004 -16.91102,-13.14956 -55.18037,-47.2115 -69.84635,-62.16729 -14.15198,-14.43165 -13.39683,-14.87034 23.51473,-13.66018 35.57049,1.16619 67.30888,6.50504 117.73556,19.80479 78.255,20.63932 149.8689,51.58838 176.56712,76.30624 16.02428,14.83564 18.05307,23.28689 8.41408,35.05 C 898.43168,429.0301 858.12745,440.13476 825,437.1754 l 0,0 z"
       id="path3056"
       inkscape:connector-curvature="0" />
    <path
       style="fill:#aa4400"
       d="m 538.76747,616.07621 c -17.63311,-17.63313 -20.55412,-63.31186 -8.92064,-139.50118 6.0141,-39.38725 23.95303,-116.581 40.02042,-172.21352 l 3.02788,-10.48387 1.03052,8.87097 c 6.1763,53.16731 9.45082,182.10037 5.87818,231.45161 -2.72981,37.70873 -8.86318,69.45771 -14.83183,76.77603 -1.83636,2.25162 -17.57065,9.5143 -20.6123,9.5143 -0.64784,0 -3.16434,-1.98646 -5.59223,-4.41434 z"
       id="path3058"
       inkscape:connector-curvature="0" />
    <path
       style="fill:#abc837"
       d="M 488.70968,264.78473 C 337.17994,235.56881 325.98106,233.18716 303.22786,225.3386 c -12.54218,-4.32634 -21.77625,-10.46664 -21.77625,-14.48037 0,-8.61671 38.1476,-19.87496 84.67742,-24.99029 l 9.67742,-1.0639 91.12903,46.0324 c 50.12097,25.31781 89.31452,45.97233 87.09678,45.89893 -2.21774,-0.0734 -31.61291,-5.45119 -65.32258,-11.95064 z"
       id="path3060"
       inkscape:connector-curvature="0" />
    <path
       style="fill:#abc837"
       d="m 530.17836,227.81446 c -20.59003,-27.01917 -37.42048,-50.42599 -37.401,-52.01516 0.0195,-1.58917 1.42414,-5.94846 3.12146,-9.68732 3.69742,-8.14465 8.58439,-9.93587 19.29348,-7.07162 17.22986,4.60828 38.03407,21.25875 45.71185,36.58507 8.78196,17.53049 10.06359,23.98369 10.06359,50.67157 0,14.4137 -0.70991,26.19482 -1.67648,27.82161 -1.41623,2.3836 -7.48802,-4.80455 -39.1129,-46.30415 l 0,0 z"
       id="path3062"
       inkscape:connector-curvature="0" />
    <path
       style="fill:#aa4400"
       d="m 577.22929,264.84538 c 0.54169,-3.54838 2.83499,-21.33064 5.09622,-39.51613 7.99851,-64.32658 16.23426,-105.28605 24.48522,-121.77419 7.81427,-15.615482 19.61008,-19.641127 30.22992,-10.316786 3.13571,2.753187 5.70129,5.784668 5.70129,6.736625 0,2.049391 -64.40432,169.339291 -65.64619,170.515651 -0.46825,0.44354 -0.40816,-2.09678 0.13354,-5.64517 l 0,0 z"
       id="path3064"
       inkscape:connector-curvature="0" />
    <path
       style="fill:#aa4400"
       d="M 850.80645,833.88069 C 793.8001,829.46337 737.55161,812.74237 690.97896,786.36871 633.11946,753.60343 579.95369,696.22048 553.35595,637.82925 c -5.37394,-11.79766 -5.50895,-12.5 -2.40274,-12.5 4.45038,0 9.66678,-2.76775 13.56292,-7.1963 1.77419,-2.01665 10.84677,-6.58265 20.16129,-10.1467 68.91603,-26.36953 163.04943,-71.36264 216.12903,-103.30356 45.17045,-27.18156 89.03602,-60.69326 109.50195,-83.65554 l 7.69944,-8.63857 23.25414,21.55815 c 39.18197,36.32429 72.66912,72.2555 104.03252,111.62529 52.2381,65.57333 77.8551,116.99004 80.7198,162.0153 1.583,24.88035 -3.7595,44.40292 -16.9008,61.75821 -10.4141,13.75368 -23.8166,24.01506 -44.5974,34.14518 -31.256,15.23653 -65.16155,23.31243 -122.26912,29.123 -20.43629,2.07935 -71.7765,2.79071 -91.44053,1.26698 l 0,0 z"
       id="path3066"
       inkscape:connector-curvature="0" />
    <path
       style="fill:#88aa00"
       d="m 578.8738,257.58732 c 0.51462,-3.10484 2.77732,-19.79839 5.0282,-37.09677 7.75686,-59.61253 15.72302,-98.72368 23.461,-115.18552 7.05627,-15.011569 18.87233,-19.640599 28.80357,-11.284011 2.72936,2.296599 4.96246,4.982876 4.96246,5.969505 0,3.317306 -60.26489,160.347526 -62.31708,162.377556 -0.48061,0.47542 -0.45278,-1.67592 0.0618,-4.78076 z"
       id="path3068"
       inkscape:connector-curvature="0" />
  </g>
</svg>
